<svg width="1026" height="236" viewBox="0 0 1026 236" fill="none" xmlns="http://www.w3.org/2000/svg">
<rect width="1026" height="236" fill="white"/>
<g filter="url(#filter0_d_0_1)">
<path d="M165.663 24.6394L229.574 66.4905C231.761 67.9241 233.554 69.866 234.795 72.1438C236.035 74.4216 236.684 76.9649 236.684 79.5481V170.327L156.795 133.917L76.9065 170.327C76.9065 96.1633 76.9065 97.5367 76.9065 170.327C76.9065 96.85 76.9065 96.1633 76.9065 170.327C76.9065 96.85 76.9065 96.85 76.9065 170.327C76.9065 171.758 76.9065 96.85 76.9065 170.327L76.9065 79.5481C76.9064 76.9649 77.5553 74.4216 78.7956 72.1438C80.0359 69.866 81.8292 67.9241 84.0166 66.4905L147.927 24.6394C150.553 22.9184 153.639 22 156.795 22C159.951 22 163.037 22.9184 165.663 24.6394Z" fill="#699BF7"/>
</g>
<g filter="url(#filter1_d_0_1)">
<path d="M140.756 41.2193L204.667 83.0704C206.855 84.5041 208.648 86.446 209.888 88.7238C211.128 91.0015 211.777 93.5448 211.777 96.128V159.003L156.795 134.133L52 181.691C52 107.528 52 108.901 52 181.691C52 108.214 52 107.528 52 181.691C52 108.214 52 108.214 52 181.691L52 96.128C51.9999 93.5448 52.6488 91.0015 53.8891 88.7238C55.1294 86.446 56.9228 84.5041 59.1101 83.0704L123.021 41.2193C125.647 39.4983 128.732 38.5799 131.889 38.5799C135.045 38.5799 138.131 39.4983 140.756 41.2193Z" fill="#69D5F7" fill-opacity="0.5" shape-rendering="crispEdges"/>
</g>
<g filter="url(#filter2_d_0_1)">
<path d="M191.979 41.676L255.89 83.5271C258.077 84.9607 259.871 86.9026 261.111 89.1804C262.351 91.4582 263 94.0015 263 96.5847V183L156.795 134.153L103.223 158.566C103.223 84.4031 103.223 85.7765 103.223 158.566C103.223 85.0898 103.223 84.4031 103.223 158.566C103.223 85.0898 103.223 85.0898 103.223 158.566C103.223 159.998 103.223 85.0898 103.223 158.566L103.223 96.5847C103.223 94.0015 103.872 91.4582 105.112 89.1804C106.352 86.9026 108.145 84.9607 110.333 83.5271L174.244 41.676C176.869 39.955 179.955 39.0366 183.111 39.0366C186.268 39.0366 189.353 39.955 191.979 41.676Z" fill="#69D5F7" fill-opacity="0.5" shape-rendering="crispEdges"/>
</g>
<path d="M76.9065 169.911C76.9065 169.911 76.9065 77.8482 76.9065 78.7209" stroke="#012970" stroke-width="2"/>
<path d="M83.0156 67.3767L123.43 40.7615" stroke="#012970" stroke-width="2"/>
<path d="M140.817 41.1978L156.795 51.6694" stroke="#012970" stroke-width="2"/>
<path d="M159.145 51.6694L175.123 41.1978" stroke="#012970" stroke-width="2"/>
<path d="M191.1 41.1978L229.635 66.5041M236.684 78.7209V170.783" stroke="#012970" stroke-width="2"/>
<path d="M192.04 41.6342C184.587 38.1137 180.631 37.7776 174.183 41.6342" stroke="#012970" stroke-width="2"/>
<path d="M76.9065 79.5935C76.9491 73.5331 78.2723 70.7107 83.4855 66.9404" stroke="#012970" stroke-width="2"/>
<path d="M122.49 41.1978C129.978 37.1369 134.2 37.6358 141.757 41.6341" stroke="#012970" stroke-width="2"/>
<path d="M156.325 51.2331C157.629 52.5279 158.349 52.4809 159.615 51.2331" stroke="#012970" stroke-width="2"/>
<path d="M227.755 65.1951C234.752 70.104 236.27 73.5788 236.684 80.4661" stroke="#012970" stroke-width="2"/>
<path d="M310.125 153C307.792 153 306 152.333 304.75 151C303.5 149.667 302.875 147.833 302.875 145.5V70.375C302.875 67.9583 303.542 66.125 304.875 64.875C306.208 63.5417 308.042 62.875 310.375 62.875C312.458 62.875 314.083 63.2917 315.25 64.125C316.5 64.875 317.625 66.2083 318.625 68.125L349.5 125.25H345.5L376.375 68.125C377.375 66.2083 378.458 64.875 379.625 64.125C380.792 63.2917 382.417 62.875 384.5 62.875C386.833 62.875 388.625 63.5417 389.875 64.875C391.125 66.125 391.75 67.9583 391.75 70.375V145.5C391.75 147.833 391.125 149.667 389.875 151C388.708 152.333 386.917 153 384.5 153C382.167 153 380.375 152.333 379.125 151C377.875 149.667 377.25 147.833 377.25 145.5V87.625H380L353.75 135.5C352.917 136.917 352.042 137.958 351.125 138.625C350.208 139.292 348.958 139.625 347.375 139.625C345.792 139.625 344.5 139.292 343.5 138.625C342.5 137.875 341.625 136.833 340.875 135.5L314.375 87.5H317.375V145.5C317.375 147.833 316.75 149.667 315.5 151C314.333 152.333 312.542 153 310.125 153ZM439.771 153.25C432.854 153.25 426.896 151.958 421.896 149.375C416.896 146.792 413.021 143.125 410.271 138.375C407.604 133.625 406.271 128 406.271 121.5C406.271 115.167 407.562 109.625 410.146 104.875C412.812 100.125 416.437 96.4167 421.021 93.75C425.687 91 430.979 89.625 436.896 89.625C441.229 89.625 445.104 90.3333 448.521 91.75C452.021 93.1667 454.979 95.2083 457.396 97.875C459.896 100.542 461.771 103.792 463.021 107.625C464.354 111.375 465.021 115.625 465.021 120.375C465.021 121.875 464.479 123.042 463.396 123.875C462.396 124.625 460.937 125 459.021 125H418.896V116H454.021L452.021 117.875C452.021 114.042 451.437 110.833 450.271 108.25C449.187 105.667 447.562 103.708 445.396 102.375C443.312 100.958 440.687 100.25 437.521 100.25C434.021 100.25 431.021 101.083 428.521 102.75C426.104 104.333 424.229 106.625 422.896 109.625C421.646 112.542 421.021 116.042 421.021 120.125V121C421.021 127.833 422.604 132.958 425.771 136.375C429.021 139.708 433.771 141.375 440.021 141.375C442.187 141.375 444.604 141.125 447.271 140.625C450.021 140.042 452.604 139.083 455.021 137.75C456.771 136.75 458.312 136.333 459.646 136.5C460.979 136.583 462.021 137.042 462.771 137.875C463.604 138.708 464.104 139.75 464.271 141C464.437 142.167 464.187 143.375 463.521 144.625C462.937 145.875 461.896 146.958 460.396 147.875C457.479 149.708 454.104 151.083 450.271 152C446.521 152.833 443.021 153.25 439.771 153.25ZM505.15 153.25C499.734 153.25 495.192 152.333 491.525 150.5C487.942 148.667 485.275 146 483.525 142.5C481.775 138.917 480.9 134.5 480.9 129.25V102.625H474.4C472.4 102.625 470.859 102.125 469.775 101.125C468.692 100.042 468.15 98.5833 468.15 96.75C468.15 94.8333 468.692 93.375 469.775 92.375C470.859 91.375 472.4 90.875 474.4 90.875H480.9V79.5C480.9 76.9167 481.567 74.9583 482.9 73.625C484.317 72.2917 486.275 71.625 488.775 71.625C491.275 71.625 493.192 72.2917 494.525 73.625C495.859 74.9583 496.525 76.9167 496.525 79.5V90.875H509.775C511.775 90.875 513.317 91.375 514.4 92.375C515.484 93.375 516.025 94.8333 516.025 96.75C516.025 98.5833 515.484 100.042 514.4 101.125C513.317 102.125 511.775 102.625 509.775 102.625H496.525V128.375C496.525 132.375 497.4 135.375 499.15 137.375C500.9 139.375 503.734 140.375 507.65 140.375C509.067 140.375 510.317 140.25 511.4 140C512.484 139.75 513.442 139.583 514.275 139.5C515.275 139.417 516.109 139.75 516.775 140.5C517.442 141.167 517.775 142.583 517.775 144.75C517.775 146.417 517.484 147.917 516.9 149.25C516.4 150.5 515.442 151.375 514.025 151.875C512.942 152.208 511.525 152.5 509.775 152.75C508.025 153.083 506.484 153.25 505.15 153.25ZM545.249 153.25C540.832 153.25 536.874 152.417 533.374 150.75C529.957 149 527.249 146.667 525.249 143.75C523.332 140.833 522.374 137.542 522.374 133.875C522.374 129.375 523.541 125.833 525.874 123.25C528.207 120.583 531.999 118.667 537.249 117.5C542.499 116.333 549.541 115.75 558.374 115.75H564.624V124.75H558.499C553.332 124.75 549.207 125 546.124 125.5C543.041 126 540.832 126.875 539.499 128.125C538.249 129.292 537.624 130.958 537.624 133.125C537.624 135.875 538.582 138.125 540.499 139.875C542.416 141.625 545.082 142.5 548.499 142.5C551.249 142.5 553.666 141.875 555.749 140.625C557.916 139.292 559.624 137.5 560.874 135.25C562.124 133 562.749 130.417 562.749 127.5V113.125C562.749 108.958 561.832 105.958 559.999 104.125C558.166 102.292 555.082 101.375 550.749 101.375C548.332 101.375 545.707 101.667 542.874 102.25C540.124 102.833 537.207 103.833 534.124 105.25C532.541 106 531.124 106.208 529.874 105.875C528.707 105.542 527.791 104.875 527.124 103.875C526.457 102.792 526.124 101.625 526.124 100.375C526.124 99.125 526.457 97.9167 527.124 96.75C527.791 95.5 528.916 94.5833 530.499 94C534.332 92.4167 537.999 91.2917 541.499 90.625C545.082 89.9583 548.332 89.625 551.249 89.625C557.249 89.625 562.166 90.5417 565.999 92.375C569.916 94.2083 572.832 97 574.749 100.75C576.666 104.417 577.624 109.167 577.624 115V145C577.624 147.583 576.999 149.583 575.749 151C574.499 152.333 572.707 153 570.374 153C568.041 153 566.207 152.333 564.874 151C563.624 149.583 562.999 147.583 562.999 145V139H563.999C563.416 141.917 562.249 144.458 560.499 146.625C558.832 148.708 556.707 150.333 554.124 151.5C551.541 152.667 548.582 153.25 545.249 153.25ZM625.358 153.25C621.692 153.25 618.025 152.958 614.358 152.375C610.692 151.875 607.233 151.083 603.983 150C600.733 148.833 597.817 147.417 595.233 145.75C593.733 144.75 592.692 143.542 592.108 142.125C591.525 140.708 591.317 139.333 591.483 138C591.733 136.583 592.275 135.375 593.108 134.375C594.025 133.292 595.15 132.625 596.483 132.375C597.817 132.125 599.275 132.5 600.858 133.5C604.525 135.667 608.4 137.25 612.483 138.25C616.567 139.25 620.858 139.75 625.358 139.75C631.942 139.75 636.733 138.667 639.733 136.5C642.733 134.25 644.233 131.375 644.233 127.875C644.233 124.958 643.15 122.667 640.983 121C638.9 119.333 635.275 117.958 630.108 116.875L616.358 114C608.442 112.333 602.525 109.542 598.608 105.625C594.775 101.625 592.858 96.375 592.858 89.875C592.858 85.7917 593.692 82.0833 595.358 78.75C597.025 75.4167 599.358 72.5417 602.358 70.125C605.442 67.7083 609.067 65.875 613.233 64.625C617.483 63.2917 622.15 62.625 627.233 62.625C632.233 62.625 636.983 63.25 641.483 64.5C645.983 65.75 650.025 67.5833 653.608 70C654.942 70.9167 655.817 72.0417 656.233 73.375C656.733 74.7083 656.858 76.0417 656.608 77.375C656.358 78.625 655.775 79.7083 654.858 80.625C653.942 81.5417 652.775 82.0833 651.358 82.25C650.025 82.4167 648.483 82 646.733 81C643.65 79.25 640.525 78 637.358 77.25C634.192 76.5 630.775 76.125 627.108 76.125C623.275 76.125 619.983 76.6667 617.233 77.75C614.483 78.8333 612.358 80.375 610.858 82.375C609.442 84.2917 608.733 86.5833 608.733 89.25C608.733 92.25 609.733 94.6667 611.733 96.5C613.733 98.25 617.15 99.625 621.983 100.625L635.608 103.5C643.858 105.25 649.983 108 653.983 111.75C658.067 115.5 660.108 120.5 660.108 126.75C660.108 130.75 659.275 134.375 657.608 137.625C656.025 140.875 653.692 143.667 650.608 146C647.608 148.333 643.983 150.125 639.733 151.375C635.483 152.625 630.692 153.25 625.358 153.25ZM680.091 153C677.591 153 675.674 152.333 674.341 151C673.007 149.583 672.341 147.583 672.341 145V70.75C672.341 68.1667 673.007 66.2083 674.341 64.875C675.674 63.5417 677.591 62.875 680.091 62.875C682.591 62.875 684.507 63.5417 685.841 64.875C687.257 66.2083 687.966 68.1667 687.966 70.75V116.875H688.216L708.841 95.125C710.507 93.4583 711.966 92.1667 713.216 91.25C714.466 90.3333 716.174 89.875 718.341 89.875C720.507 89.875 722.132 90.4583 723.216 91.625C724.382 92.7083 724.966 94.0417 724.966 95.625C724.966 97.2083 724.216 98.7917 722.716 100.375L700.966 123.375V116.875L724.841 142.625C726.341 144.208 727.007 145.833 726.841 147.5C726.757 149.083 726.091 150.417 724.841 151.5C723.591 152.5 722.007 153 720.091 153C717.757 153 715.882 152.542 714.466 151.625C713.132 150.708 711.632 149.333 709.966 147.5L688.216 124.75H687.966V145C687.966 150.333 685.341 153 680.091 153ZM768.262 153.25C761.345 153.25 755.387 151.958 750.387 149.375C745.387 146.792 741.512 143.125 738.762 138.375C736.095 133.625 734.762 128 734.762 121.5C734.762 115.167 736.053 109.625 738.637 104.875C741.303 100.125 744.928 96.4167 749.512 93.75C754.178 91 759.47 89.625 765.387 89.625C769.72 89.625 773.595 90.3333 777.012 91.75C780.512 93.1667 783.47 95.2083 785.887 97.875C788.387 100.542 790.262 103.792 791.512 107.625C792.845 111.375 793.512 115.625 793.512 120.375C793.512 121.875 792.97 123.042 791.887 123.875C790.887 124.625 789.428 125 787.512 125H747.387V116H782.512L780.512 117.875C780.512 114.042 779.928 110.833 778.762 108.25C777.678 105.667 776.053 103.708 773.887 102.375C771.803 100.958 769.178 100.25 766.012 100.25C762.512 100.25 759.512 101.083 757.012 102.75C754.595 104.333 752.72 106.625 751.387 109.625C750.137 112.542 749.512 116.042 749.512 120.125V121C749.512 127.833 751.095 132.958 754.262 136.375C757.512 139.708 762.262 141.375 768.512 141.375C770.678 141.375 773.095 141.125 775.762 140.625C778.512 140.042 781.095 139.083 783.512 137.75C785.262 136.75 786.803 136.333 788.137 136.5C789.47 136.583 790.512 137.042 791.262 137.875C792.095 138.708 792.595 139.75 792.762 141C792.928 142.167 792.678 143.375 792.012 144.625C791.428 145.875 790.387 146.958 788.887 147.875C785.97 149.708 782.595 151.083 778.762 152C775.012 152.833 771.512 153.25 768.262 153.25ZM833.642 153.25C828.225 153.25 823.683 152.333 820.017 150.5C816.433 148.667 813.767 146 812.017 142.5C810.267 138.917 809.392 134.5 809.392 129.25V102.625H802.892C800.892 102.625 799.35 102.125 798.267 101.125C797.183 100.042 796.642 98.5833 796.642 96.75C796.642 94.8333 797.183 93.375 798.267 92.375C799.35 91.375 800.892 90.875 802.892 90.875H809.392V79.5C809.392 76.9167 810.058 74.9583 811.392 73.625C812.808 72.2917 814.767 71.625 817.267 71.625C819.767 71.625 821.683 72.2917 823.017 73.625C824.35 74.9583 825.017 76.9167 825.017 79.5V90.875H838.267C840.267 90.875 841.808 91.375 842.892 92.375C843.975 93.375 844.517 94.8333 844.517 96.75C844.517 98.5833 843.975 100.042 842.892 101.125C841.808 102.125 840.267 102.625 838.267 102.625H825.017V128.375C825.017 132.375 825.892 135.375 827.642 137.375C829.392 139.375 832.225 140.375 836.142 140.375C837.558 140.375 838.808 140.25 839.892 140C840.975 139.75 841.933 139.583 842.767 139.5C843.767 139.417 844.6 139.75 845.267 140.5C845.933 141.167 846.267 142.583 846.267 144.75C846.267 146.417 845.975 147.917 845.392 149.25C844.892 150.5 843.933 151.375 842.517 151.875C841.433 152.208 840.017 152.5 838.267 152.75C836.517 153.083 834.975 153.25 833.642 153.25ZM881.255 153.25C874.838 153.25 869.255 151.958 864.505 149.375C859.755 146.708 856.088 142.958 853.505 138.125C850.922 133.292 849.63 127.625 849.63 121.125C849.63 116.208 850.338 111.833 851.755 108C853.255 104.083 855.38 100.792 858.13 98.125C860.88 95.375 864.213 93.2917 868.13 91.875C872.047 90.375 876.422 89.625 881.255 89.625C884.005 89.625 886.963 90 890.13 90.75C893.38 91.5 896.422 92.75 899.255 94.5C900.588 95.3333 901.463 96.3333 901.88 97.5C902.297 98.6667 902.38 99.875 902.13 101.125C901.88 102.292 901.338 103.333 900.505 104.25C899.755 105.083 898.797 105.625 897.63 105.875C896.463 106.042 895.172 105.75 893.755 105C891.922 103.917 890.047 103.125 888.13 102.625C886.213 102.042 884.38 101.75 882.63 101.75C879.88 101.75 877.463 102.208 875.38 103.125C873.297 103.958 871.505 105.208 870.005 106.875C868.588 108.458 867.505 110.458 866.755 112.875C866.005 115.292 865.63 118.083 865.63 121.25C865.63 127.417 867.088 132.292 870.005 135.875C873.005 139.375 877.213 141.125 882.63 141.125C884.38 141.125 886.172 140.875 888.005 140.375C889.922 139.875 891.838 139.083 893.755 138C895.172 137.25 896.422 137 897.505 137.25C898.672 137.5 899.63 138.083 900.38 139C901.13 139.833 901.588 140.875 901.755 142.125C901.922 143.292 901.755 144.458 901.255 145.625C900.838 146.792 900.005 147.75 898.755 148.5C896.005 150.167 893.088 151.375 890.005 152.125C886.922 152.875 884.005 153.25 881.255 153.25ZM919.715 153C917.215 153 915.298 152.333 913.965 151C912.632 149.583 911.965 147.583 911.965 145V70.75C911.965 68.1667 912.632 66.2083 913.965 64.875C915.298 63.5417 917.215 62.875 919.715 62.875C922.215 62.875 924.132 63.5417 925.465 64.875C926.882 66.2083 927.59 68.1667 927.59 70.75V103.125H925.84C927.673 98.7083 930.507 95.375 934.34 93.125C938.257 90.7917 942.673 89.625 947.59 89.625C952.507 89.625 956.548 90.5417 959.715 92.375C962.882 94.2083 965.257 97 966.84 100.75C968.423 104.417 969.215 109.083 969.215 114.75V145C969.215 147.583 968.548 149.583 967.215 151C965.882 152.333 963.965 153 961.465 153C958.965 153 957.007 152.333 955.59 151C954.257 149.583 953.59 147.583 953.59 145V115.5C953.59 110.75 952.673 107.292 950.84 105.125C949.09 102.958 946.34 101.875 942.59 101.875C938.007 101.875 934.34 103.333 931.59 106.25C928.923 109.083 927.59 112.875 927.59 117.625V145C927.59 150.333 924.965 153 919.715 153Z" fill="#012970"/>
<defs>
<filter id="filter0_d_0_1" x="72.9065" y="22" width="167.777" height="156.347" filterUnits="userSpaceOnUse" color-interpolation-filters="sRGB">
<feFlood flood-opacity="0" result="BackgroundImageFix"/>
<feColorMatrix in="SourceAlpha" type="matrix" values="0 0 0 0 0 0 0 0 0 0 0 0 0 0 0 0 0 0 127 0" result="hardAlpha"/>
<feOffset dy="4"/>
<feGaussianBlur stdDeviation="2"/>
<feComposite in2="hardAlpha" operator="out"/>
<feColorMatrix type="matrix" values="0 0 0 0 0 0 0 0 0 0 0 0 0 0 0 0 0 0 0.25 0"/>
<feBlend mode="normal" in2="BackgroundImageFix" result="effect1_dropShadow_0_1"/>
<feBlend mode="normal" in="SourceGraphic" in2="effect1_dropShadow_0_1" result="shape"/>
</filter>
<filter id="filter1_d_0_1" x="48" y="38.5799" width="167.777" height="151.111" filterUnits="userSpaceOnUse" color-interpolation-filters="sRGB">
<feFlood flood-opacity="0" result="BackgroundImageFix"/>
<feColorMatrix in="SourceAlpha" type="matrix" values="0 0 0 0 0 0 0 0 0 0 0 0 0 0 0 0 0 0 127 0" result="hardAlpha"/>
<feOffset dy="4"/>
<feGaussianBlur stdDeviation="2"/>
<feComposite in2="hardAlpha" operator="out"/>
<feColorMatrix type="matrix" values="0 0 0 0 0 0 0 0 0 0 0 0 0 0 0 0 0 0 0.25 0"/>
<feBlend mode="normal" in2="BackgroundImageFix" result="effect1_dropShadow_0_1"/>
<feBlend mode="normal" in="SourceGraphic" in2="effect1_dropShadow_0_1" result="shape"/>
</filter>
<filter id="filter2_d_0_1" x="99.2227" y="39.0366" width="167.777" height="151.963" filterUnits="userSpaceOnUse" color-interpolation-filters="sRGB">
<feFlood flood-opacity="0" result="BackgroundImageFix"/>
<feColorMatrix in="SourceAlpha" type="matrix" values="0 0 0 0 0 0 0 0 0 0 0 0 0 0 0 0 0 0 127 0" result="hardAlpha"/>
<feOffset dy="4"/>
<feGaussianBlur stdDeviation="2"/>
<feComposite in2="hardAlpha" operator="out"/>
<feColorMatrix type="matrix" values="0 0 0 0 0 0 0 0 0 0 0 0 0 0 0 0 0 0 0.25 0"/>
<feBlend mode="normal" in2="BackgroundImageFix" result="effect1_dropShadow_0_1"/>
<feBlend mode="normal" in="SourceGraphic" in2="effect1_dropShadow_0_1" result="shape"/>
</filter>
</defs>
</svg>
